# xmcd
#
# Track frame offsets: 
#        150
#        23727
#        50696
#        85141
#        101395
#        130158
#        148950
#        180514
#        199523
#        215000
#        229633
#
# Disc length: 3407 seconds
#
# Revision: 1
# Processed by: cddbd v1.5.2PL0 Copyright (c) Steve Scherf et al.
# Submitted via: ExactAudioCopy v1.0b1
#
DISCID=940d4d0b
DTITLE=Jacky Terrasson - Push
DYEAR=2010
DGENRE=Jazz
TTITLE0=Gaux Girl
TTITLE1=Beat It Body and Soul
TTITLE2=Ruby My Dear
TTITLE3=Beat Bop
TTITLE4='Round Midnight
TTITLE5=Morning
TTITLE6=My Church
TTITLE7=Say Yeah
TTITLE8=You' d Be So Nice to Come Home To
TTITLE9=Carry Me Away
TTITLE10=O Cafe, O Soleil
EXTD=YEAR: 2010
EXTT0=
EXTT1=
EXTT2=
EXTT3=
EXTT4=
EXTT5=
EXTT6=
EXTT7=
EXTT8=
EXTT9=
EXTT10=
PLAYORDER=
